<?xml version="1.0" encoding="UTF-8" standalone="no"?>
<!-- Created with Inkscape (http://www.inkscape.org/) -->

<svg
   xmlns:dc="http://purl.org/dc/elements/1.1/"
   xmlns:cc="http://creativecommons.org/ns#"
   xmlns:rdf="http://www.w3.org/1999/02/22-rdf-syntax-ns#"
   xmlns:svg="http://www.w3.org/2000/svg"
   xmlns="http://www.w3.org/2000/svg"
   xmlns:sodipodi="http://sodipodi.sourceforge.net/DTD/sodipodi-0.dtd"
   xmlns:inkscape="http://www.inkscape.org/namespaces/inkscape"
   id="svg2985"
   version="1.1"
   inkscape:version="0.92.1 r15371"
   width="793.62671"
   height="1122.6666"
   xml:space="preserve"
   sodipodi:docname="logo-left-mark.svg"
   inkscape:export-filename="C:\Allors\core\trunk\Media\logo-right.png"
   inkscape:export-xdpi="46.888908"
   inkscape:export-ydpi="46.888908"><metadata
     id="metadata2991"><rdf:RDF><cc:Work
         rdf:about=""><dc:format>image/svg+xml</dc:format><dc:type
           rdf:resource="http://purl.org/dc/dcmitype/StillImage" /><dc:title></dc:title></cc:Work></rdf:RDF></metadata><defs
     id="defs2989" /><sodipodi:namedview
     pagecolor="#ffffff"
     bordercolor="#666666"
     borderopacity="1"
     objecttolerance="10"
     gridtolerance="10"
     guidetolerance="10"
     inkscape:pageopacity="0"
     inkscape:pageshadow="2"
     inkscape:window-width="3840"
     inkscape:window-height="2035"
     id="namedview2987"
     showgrid="false"
     inkscape:zoom="0.89691211"
     inkscape:cx="328.04575"
     inkscape:cy="774.89541"
     inkscape:window-x="2547"
     inkscape:window-y="-13"
     inkscape:window-maximized="1"
     inkscape:current-layer="g2993" /><g
     id="g2993"
     inkscape:groupmode="layer"
     inkscape:label="ALLORS-OPTION 3"
     transform="matrix(1.25,0,0,-1.25,0,1122.6667)"><path
       d="m 245.5872,653.2832 c -0.16747,8.93973 -3.24693,16.28053 -9.41973,22.41067 -6.3584,6.31253 -13.96694,9.3792 -23.26294,9.3792 -9.2928,0 -16.8768,-3.0656 -23.18613,-9.3728 -6.30613,-6.30934 -9.37173,-13.89227 -9.37173,-23.18507 0,-9.29493 3.06773,-16.90667 9.37813,-23.264 6.30507,-6.34773 13.88693,-9.43467 23.17973,-9.43467 2.07894,0 3.70454,0.61547 4.9728,1.88374 1.26614,1.26293 1.88054,2.8896 1.88054,4.97066 0,2.06614 -0.60694,3.66187 -1.856,4.8768 -1.2704,1.2352 -2.9056,1.83574 -4.99734,1.83574 -5.2544,0 -9.7856,1.89226 -13.4624,5.6224 -3.66826,3.71733 -5.52853,8.2624 -5.52853,13.50933 0,5.24693 1.86347,9.7728 5.5392,13.4496 3.6768,3.6768 8.20267,5.5424 13.45173,5.5424 5.2416,0 9.78774,-1.86133 13.50614,-5.5296 3.73226,-3.68213 5.71626,-8.21227 5.71626,-13.4624 v 0.08 l 0.005,-0.0821 -0.005,-0.0672 v -18.7275 c 0,-3.6992 1.328,-6.87467 3.97547,-9.52747 2.65707,-2.65386 5.83147,-3.97866 9.5296,-3.97866 v 32.2336 c 0,0.29226 -0.0171,0.57066 -0.0448,0.83733"
       style="fill:#625669;fill-opacity:1;fill-rule:nonzero;stroke:none;stroke-width:1.06666672"
       id="path3041"
       inkscape:connector-curvature="0" /><path
       d="m 206.85547,731.8272 c -41.40054,-1.61493 -73.65334,-36.4864 -72.0384,-77.888 1.04853,-26.88533 16.1312,-49.904 37.91253,-62.304 l -5.4624,-9.53387 c -24.81493,14.1888 -41.98507,40.44694 -43.17867,71.11147 -1.8496,47.31627 35.01334,87.16907 82.3296,89.0144 l 0.2432,0.004 0.40427,-10.40214 -0.21013,-0.002"
       style="fill:#0071bc;fill-opacity:1;fill-rule:nonzero;stroke:none;stroke-width:1.06666672"
       id="path3047"
       inkscape:connector-curvature="0" /><path
       d="m 158.61333,601.71413 c -30.41493,28.13227 -32.2688,75.59787 -4.13546,106.01494 l 0.1472,0.14933 8.02986,-7.42507 c -24.1024,-26.07146 -22.512,-66.74453 3.55627,-90.8576 16.85867,-15.5936 39.82827,-20.4224 60.47787,-14.84906 l 2.78826,-10.2784 c -24.16853,-6.6336 -51.1104,-1.024 -70.864,17.24586"
       style="fill:#008fd4;fill-opacity:1;fill-rule:nonzero;stroke:none;stroke-width:1.06666672"
       id="path3049"
       inkscape:connector-curvature="0" /><path
       d="m 156.7008,654.35093 c 0.7392,-19.0176 11.3088,-35.3184 26.6208,-44.2368 l -5.2992,-9.2352 c -18.5376,10.6656 -31.3632,30.3168 -32.2656,53.2704 -1.3824,35.472 26.256,65.3568 61.728,66.7584 l 0.432,-10.944 c -29.4528,-1.2768 -52.368,-26.1216 -51.216,-55.6128"
       style="fill:#00adef;fill-opacity:1;fill-rule:nonzero;stroke:none;stroke-width:1.06666672"
       id="path3051"
       inkscape:connector-curvature="0" /><path
       d="m 163.45813,630.29973 c -4,7.14134 -6.41706,15.3088 -6.75733,24.0512 -0.37547,9.62134 1.80907,18.7456 5.94773,26.72107 0.1312,0.24853 0.26347,0.49707 0.39787,0.74453 9.72053,17.86027 28.11627,27.9776 47.10827,27.9776 8.58133,0 17.2832,-2.06613 25.36213,-6.416 l -5.0016,-9.1968 c -6.50987,3.54347 -13.5328,5.22454 -20.4576,5.22454 -15.19467,0 -29.91467,-8.096 -37.6896,-22.37974 -7.3248,-13.4592 -6.6816,-29.0976 0.3072,-41.5392 l -9.21707,-5.1872"
       style="fill:#6ccff6;fill-opacity:1;fill-rule:nonzero;stroke:none;stroke-width:1.06666672"
       id="path3053"
       inkscape:connector-curvature="0" /><path
       d="m 163.2768,630.19733 c -8.46507,15.2736 -9.29813,34.33174 -0.62827,50.87467 -4.13866,-7.97547 -6.3232,-17.09973 -5.94773,-26.72107 0.34027,-8.7424 2.75733,-16.90986 6.75733,-24.0512 l -0.18133,-0.1024"
       style="fill:#00adef;fill-opacity:1;fill-rule:nonzero;stroke:none;stroke-width:1.06666672"
       id="path3055"
       inkscape:connector-curvature="0" /></g></svg>